<?xml version="1.0" encoding="UTF-8" standalone="no"?>
<!-- Created with Inkscape (http://www.inkscape.org/) -->

<svg
   width="126.73219mm"
   height="18.802223mm"
   viewBox="0 0 126.73219 18.802223"
   version="1.1"
   id="svg5"
   xmlns="http://www.w3.org/2000/svg"
   xmlns:svg="http://www.w3.org/2000/svg">
  <defs
     id="defs2">
    <rect
       x="99.948975"
       y="420.51703"
       width="619.19611"
       height="118.23233"
       id="rect10548" />
    <rect
       x="94.059402"
       y="415.15875"
       width="603.27759"
       height="107.03312"
       id="rect8724" />
    <rect
       x="88.728775"
       y="616.80811"
       width="490.87048"
       height="124.5065"
       id="rect9625" />
  </defs>
  <g
     id="layer1"
     transform="translate(-53.384691,-55.917059)">
    <g
       aria-label="Kravemark"
       transform="matrix(0.26458333,0,0,0.26458333,0,-0.37290526)"
       id="text9623"
       style="font-size:93.3332px;font-family:Chillax;-inkscape-font-specification:'Chillax, Normal';white-space:pre;shape-inside:url(#rect9625);fill:#1b222b;stroke:#1b222b;stroke-width:2.83465;stroke-linejoin:round;paint-order:fill markers stroke">
      <g
         aria-label="kravemark"
         id="text8722-0"
         style="font-size:93.3332px;font-family:Chillax;-inkscape-font-specification:'Chillax, Normal';white-space:pre;shape-inside:url(#rect8724);fill:#1b222b;fill-opacity:1;stroke:#1b222b;stroke-width:3.02362;stroke-linecap:round;stroke-linejoin:miter;stroke-dasharray:none;stroke-opacity:1;paint-order:stroke fill markers"
         transform="translate(94.837364,-220.91815)">
        <g
           aria-label="kravemark"
           id="text10546-15"
           style="font-size:93.3332px;shape-inside:url(#rect10548);fill:#1b222b;fill-opacity:1;stroke:#1b222b;stroke-width:3.02362;stroke-linejoin:miter;stroke-dasharray:none;stroke-opacity:1;paint-order:stroke fill markers">
          <path
             id="path10604-1"
             style="fill:#1b222b;fill-opacity:1;stroke:#1b222b;stroke-width:3.02362;stroke-linejoin:miter;stroke-dasharray:none;stroke-opacity:1;paint-order:stroke fill markers"
             d="m 108.44336,435.17969 v 35.88868 a 7.8182688,7.8182716 0 0 1 6.91602,7.75976 7.8182688,7.8182716 0 0 1 -6.91602,7.69922 v 15.47852 h 9.23828 V 482.5918 h 5.50781 c 0.46666,1.21334 1.21316,2.33508 2.14649,3.45508 l 14.56055,15.95899 h 11.38672 l -19.60157,-21.65235 c -0.56,-0.46667 -0.83984,-0.83997 -0.83984,-1.30664 0,-0.46666 0.27984,-0.83998 0.83984,-1.30664 l 19.69336,-21.4668 h -11.29297 l -14.65234,15.95899 c -0.93333,0.93333 -1.67983,1.96008 -2.14649,3.08008 h -5.60156 v -40.13282 z" />
          <path
             d="m 169.57563,502.00601 v -26.87996 c 0,-6.71999 3.73333,-10.91999 9.89332,-10.91999 2.51999,0 5.13332,0.65334 7.37332,1.96 v -9.14665 c -2.33333,-1.12 -5.31999,-1.68 -8.21332,-1.68 -11.94665,0 -18.29331,8.30666 -18.29331,19.41331 v 27.25329 z"
             style="fill:#1b222b;fill-opacity:1;stroke:#1b222b;stroke-width:3.02362;stroke-linejoin:miter;stroke-dasharray:none;stroke-opacity:1;paint-order:stroke fill markers"
             id="path10606-1" />
          <path
             d="m 213.72209,503.12601 c 7.46665,0 13.53331,-3.54666 16.98664,-9.14666 v 8.02666 h 8.77332 v -22.95997 c 0,-13.62664 -10.54665,-23.8933 -24.35996,-23.8933 -13.90665,0 -24.35997,10.82666 -24.35997,23.8933 0,13.25332 9.70665,24.07997 22.95997,24.07997 z m 1.4,-8.77332 c -8.49332,0 -15.11998,-6.90666 -15.11998,-15.21331 0,-8.39999 6.62666,-15.30665 15.11998,-15.30665 8.58665,0 15.11997,6.90666 15.11997,15.30665 0,8.30665 -6.53332,15.21331 -15.11997,15.21331 z"
             style="fill:#1b222b;fill-opacity:1;stroke:#1b222b;stroke-width:3.02362;stroke-linejoin:miter;stroke-dasharray:none;stroke-opacity:1;paint-order:stroke fill markers"
             id="path10608-1" />
          <path
             d="m 260.85527,496.03269 c 1.77333,4.75999 5.31999,7.18665 9.61332,7.18665 4.47999,0 7.74666,-2.42666 9.51999,-7.18665 l 14.83997,-39.75995 h -9.79998 l -13.43998,37.23995 c -0.0933,0.46666 -0.46667,0.93333 -1.12,0.93333 -0.56,0 -0.93333,-0.46667 -1.02667,-0.93333 l -13.43998,-37.23995 h -9.89332 z"
             style="fill:#1b222b;fill-opacity:1;stroke:#1b222b;stroke-width:3.02362;stroke-linejoin:miter;stroke-dasharray:none;stroke-opacity:1;paint-order:stroke fill markers"
             id="path10610-5" />
          <path
             d="m 323.10833,503.03268 c 8.95998,0 16.33331,-4.2 20.34663,-12.03999 l -7.09332,-3.63999 c -2.70666,5.03999 -7.74665,7.46665 -13.34665,7.46665 -8.21332,0 -14.18664,-5.50665 -15.21331,-13.34664 h 36.58662 v -3.73333 c 0,-12.78665 -8.58666,-22.7733 -22.39997,-22.7733 -13.71998,0 -23.14663,10.73332 -23.14663,23.8933 0,14.09331 10.35998,24.1733 24.26663,24.1733 z m -14.93331,-27.5333 c 0.93333,-6.81332 5.97332,-12.22665 13.71998,-12.22665 7.55998,0 12.87998,4.94666 13.25331,12.22665 z"
             style="fill:#1b222b;fill-opacity:1;stroke:#1b222b;stroke-width:3.02362;stroke-linejoin:miter;stroke-dasharray:none;stroke-opacity:1;paint-order:stroke fill markers"
             id="path10612-1" />
          <path
             d="m 412.14808,454.96608 c -8.67998,0 -15.11998,4.66666 -17.63997,11.75998 -2.33333,-7.09332 -8.95999,-11.75998 -18.10664,-11.75998 -13.71998,0 -20.99997,10.26665 -20.99997,23.0533 v 23.98663 h 9.23999 v -22.58663 c 0,-8.30666 3.82666,-15.58665 12.41331,-15.58665 8.49332,0 12.69332,6.99999 12.69332,15.39998 v 22.7733 h 9.23998 v -22.7733 c 0,-8.39999 4.2,-15.39998 12.50665,-15.39998 8.58665,0 12.69332,7.27999 12.69332,15.58665 v 22.58663 h 9.23998 v -24.07997 c 0,-12.69331 -7.46665,-22.95996 -21.27997,-22.95996 z"
             style="fill:#1b222b;fill-opacity:1;stroke:#1b222b;stroke-width:3.02362;stroke-linejoin:miter;stroke-dasharray:none;stroke-opacity:1;paint-order:stroke fill markers"
             id="path10614-7" />
          <path
             d="m 466.74789,503.12601 c 7.46666,0 13.53331,-3.54666 16.98664,-9.14666 v 8.02666 h 8.77332 v -22.95997 c 0,-13.62664 -10.54665,-23.8933 -24.35996,-23.8933 -13.90665,0 -24.35997,10.82666 -24.35997,23.8933 0,13.25332 9.70666,24.07997 22.95997,24.07997 z m 1.4,-8.77332 c -8.49332,0 -15.11998,-6.90666 -15.11998,-15.21331 0,-8.39999 6.62666,-15.30665 15.11998,-15.30665 8.58665,0 15.11998,6.90666 15.11998,15.30665 0,8.30665 -6.53333,15.21331 -15.11998,15.21331 z"
             style="fill:#1b222b;fill-opacity:1;stroke:#1b222b;stroke-width:3.02362;stroke-linejoin:miter;stroke-dasharray:none;stroke-opacity:1;paint-order:stroke fill markers"
             id="path10616-08" />
          <path
             d="m 515.0011,502.00601 v -26.87996 c 0,-6.71999 3.73333,-10.91999 9.89332,-10.91999 2.52,0 5.13333,0.65334 7.37333,1.96 v -9.14665 c -2.33333,-1.12 -5.32,-1.68 -8.21333,-1.68 -11.94664,0 -18.2933,8.30666 -18.2933,19.41331 v 27.25329 z"
             style="fill:#1b222b;fill-opacity:1;stroke:#1b222b;stroke-width:3.02362;stroke-linejoin:miter;stroke-dasharray:none;stroke-opacity:1;paint-order:stroke fill markers"
             id="path10618-5" />
          <path
             d="M 548.78763,502.00601 V 482.5927 h 5.50666 c 0.46666,1.21334 1.21333,2.33333 2.14666,3.45333 l 14.55998,15.95998 h 11.38665 l -19.59997,-21.6533 c -0.56,-0.46667 -0.84,-0.84 -0.84,-1.30667 0,-0.46666 0.28,-0.84 0.84,-1.30666 l 19.6933,-21.46664 H 571.1876 l -14.65332,15.95998 c -0.93333,0.93333 -1.67999,1.96 -2.14666,3.08 h -5.59999 v -40.13328 h -9.23999 v 66.82657 z"
             style="fill:#1b222b;fill-opacity:1;stroke:#1b222b;stroke-width:3.02362;stroke-linejoin:miter;stroke-dasharray:none;stroke-opacity:1;paint-order:stroke fill markers"
             id="path10620-3" />
        </g>
      </g>
    </g>
  </g>
</svg>
